<svg width="48" height="48" viewBox="0 0 48 48" fill="none" xmlns="http://www.w3.org/2000/svg">
<path d="M17.0518 17.1825C16.8854 17.3531 16.6161 17.3531 16.4497 17.1825L11.9067 12.5235C11.2075 11.8065 10.8747 10.8143 11.0043 9.78493C11.0742 9.22977 11.2881 8.69868 11.6203 8.25455C12.2566 7.40404 13.2155 6.93858 14.2401 6.96757C15.0731 6.99054 15.8598 7.37013 16.4491 7.97506C16.6155 8.14571 16.8849 8.14571 17.0513 7.97506L17.0582 7.96795C17.6395 7.37177 18.4139 6.99765 19.2358 6.96866C20.1259 6.93694 20.9681 7.27769 21.5942 7.92036C22.1937 8.53514 22.5238 9.35283 22.5238 10.2225C22.5238 11.0921 22.1937 11.9098 21.5942 12.5246L17.0518 17.1825Z" fill="#FE5578"/>
<path d="M16.7504 17.8563C16.5051 17.8563 16.2592 17.7606 16.0726 17.5692L11.5296 12.9097C10.7094 12.069 10.3254 10.904 10.4752 9.71385C10.5574 9.06188 10.8075 8.44164 11.1974 7.92094C11.9355 6.93369 13.0443 6.38728 14.2544 6.4201C15.1712 6.44526 16.0534 6.83195 16.7499 7.51127C17.4416 6.83688 18.3115 6.45291 19.2171 6.42064C20.2577 6.37743 21.2358 6.77835 21.9712 7.53205C22.6715 8.2502 23.0571 9.20518 23.0571 10.2209C23.0571 11.2366 22.6715 12.1915 21.9712 12.9097L17.4278 17.5692C17.2416 17.7606 16.9958 17.8563 16.7504 17.8563ZM14.1515 7.51236C13.3211 7.51236 12.5563 7.90125 12.0438 8.58658C11.768 8.95468 11.5915 9.39279 11.5334 9.85387C11.4262 10.7049 11.6998 11.5363 12.2838 12.1358L16.7504 16.717L21.2171 12.1363C21.7158 11.6249 21.9904 10.9445 21.9904 10.2209C21.9904 9.49726 21.7158 8.81685 21.2171 8.30544C20.6934 7.76834 19.9969 7.48173 19.2544 7.514C18.5862 7.53752 17.9403 7.83616 17.4353 8.35358C17.0539 8.74465 16.4459 8.7441 16.0715 8.36069C15.5574 7.83342 14.9014 7.5326 14.2251 7.51346C14.2006 7.51291 14.176 7.51236 14.1515 7.51236Z" fill="black"/>
<path d="M40.0459 33.9072H34.392C33.4443 33.9072 32.6757 33.1191 32.6757 32.1471V19.3971C32.6757 18.4246 33.4443 17.637 34.392 17.637H40.0459C44.1376 17.637 47.4667 21.0505 47.4667 25.2473V26.2969C47.4667 30.4931 44.1376 33.9072 40.0459 33.9072ZM36.1083 30.3865H40.0453C42.2448 30.3865 44.0336 28.552 44.0336 26.2964V25.2473C44.0336 22.9922 42.2448 21.1572 40.0453 21.1572H36.1083V30.3865Z" fill="#EEEAF1"/>
<path d="M40.0458 34.4542H34.3919C33.1514 34.4542 32.1418 33.4188 32.1418 32.1466V19.3971C32.1418 18.1249 33.1514 17.0901 34.3919 17.0901H40.0458C44.4319 17.0901 47.9999 20.7492 47.9999 25.2473V26.2969C47.9999 30.7951 44.4319 34.4542 40.0458 34.4542ZM34.3919 18.184C33.7391 18.184 33.2085 18.7282 33.2085 19.3971V32.1471C33.2085 32.8166 33.7391 33.3608 34.3919 33.3608H40.0458C43.8437 33.3603 46.9333 30.1918 46.9333 26.2969V25.2473C46.9333 21.3525 43.8437 18.1834 40.0458 18.1834L34.3919 18.184ZM40.0458 30.934H36.1082C35.8133 30.934 35.5749 30.6895 35.5749 30.387V21.1572C35.5749 20.8553 35.8133 20.6102 36.1082 20.6102H40.0458C42.5391 20.6102 44.5674 22.6903 44.5674 25.2473V26.2969C44.5669 28.8539 42.5391 30.934 40.0458 30.934ZM36.6415 29.8401H40.0458C41.9503 29.8401 43.5007 28.2506 43.5007 26.2969V25.2473C43.5007 23.2936 41.9509 21.7042 40.0458 21.7042H36.6415V29.8401Z" fill="black"/>
<path d="M22.992 45.0902H20.3307C12.1365 45.0902 5.49335 38.2779 5.49335 29.874V14.7945H37.8294V29.874C37.8294 38.2779 31.1867 45.0902 22.992 45.0902Z" fill="#EEEAF1"/>
<path d="M22.992 45.6372H20.3306C11.8554 45.6372 4.96051 38.5656 4.96051 29.8745V14.795C4.96051 14.4931 5.19944 14.2481 5.49384 14.2481H37.8293C38.1242 14.2481 38.3626 14.4931 38.3626 14.795V29.8745C38.3626 38.5656 31.4672 45.6372 22.992 45.6372ZM6.02718 15.3414V29.874C6.02718 37.9623 12.4437 44.5427 20.3306 44.5427H22.992C30.8789 44.5427 37.2954 37.9623 37.2954 29.874V15.3414H6.02718Z" fill="black"/>
<path d="M40.8705 43.5812H0.533386C0.533386 45.7192 2.22352 47.453 4.30885 47.453H37.095C39.1803 47.453 40.8705 45.7197 40.8705 43.5812Z" fill="#EEEAF1"/>
<path d="M37.0949 48H4.3088C1.9328 48 0 46.0179 0 43.5812C0 43.2787 0.238933 43.0342 0.533333 43.0342H40.8704C41.1653 43.0342 41.4037 43.2787 41.4037 43.5812C41.4037 46.0179 39.4709 48 37.0949 48ZM1.1104 44.1281C1.36587 45.7023 2.7024 46.9061 4.3088 46.9061H37.0949C38.7013 46.9061 40.0384 45.7023 40.2933 44.1281H1.1104Z" fill="black"/>
<path d="M22.0876 35.244C21.8641 35.4731 21.5014 35.4731 21.278 35.244L15.1697 28.9797C14.2294 28.016 13.782 26.6814 13.9564 25.2971C14.0508 24.5505 14.3377 23.8367 14.7846 23.2394C15.6401 22.0958 16.9292 21.4701 18.3073 21.5089C19.4278 21.5401 20.4854 22.0504 21.278 22.8631C21.5014 23.0923 21.8641 23.0923 22.0876 22.8631L22.0972 22.8533C22.879 22.0515 23.9201 21.5488 25.0252 21.5094C26.222 21.4668 27.3542 21.9251 28.1964 22.7888C29.0028 23.6157 29.4465 24.7146 29.4465 25.884C29.4465 27.0533 29.0028 28.1527 28.1964 28.9792L22.0876 35.244Z" fill="#FE5578"/>
<path d="M21.6826 35.9627C21.3994 35.9627 21.1162 35.8522 20.9008 35.6312L14.792 29.3664C13.7301 28.278 13.2325 26.7689 13.4272 25.2271C13.5333 24.3837 13.8565 23.5818 14.3616 22.9069C15.3189 21.6276 16.7744 20.9187 18.3216 20.9625C19.5525 20.9969 20.736 21.5346 21.6549 22.477C21.6682 22.4907 21.6976 22.4901 21.7104 22.477C22.6229 21.5412 23.7904 21.0068 25.0069 20.9636C26.345 20.9127 27.6213 21.4268 28.5733 22.4032C29.4805 23.3335 29.9802 24.5702 29.9802 25.8856C29.9802 27.201 29.4805 28.4371 28.5733 29.3675L22.4645 35.6312C22.2485 35.8522 21.9658 35.9627 21.6826 35.9627ZM18.1877 22.0542C17.0144 22.0542 15.9328 22.6033 15.208 23.5725C14.8176 24.0943 14.5674 24.7146 14.4853 25.3671C14.3333 26.5698 14.72 27.7458 15.5466 28.5925L21.6554 34.8573C21.6704 34.8731 21.696 34.8726 21.7109 34.8567L27.8186 28.593C28.5242 27.8694 28.913 26.9073 28.913 25.8845C28.913 24.8617 28.5242 23.8996 27.8186 23.1755C27.0778 22.4157 26.0864 22.0181 25.0437 22.0558C24.0981 22.0897 23.1856 22.5098 22.4741 23.24C22.0373 23.6879 21.3184 23.6781 20.9008 23.2493C20.176 22.506 19.2496 22.0821 18.2928 22.0553C18.2576 22.0547 18.2224 22.0542 18.1877 22.0542Z" fill="black"/>
<path d="M29.7851 8.50891C29.6555 8.64182 29.4454 8.64182 29.3158 8.50891L25.7755 4.87823C25.2305 4.31979 24.9713 3.5464 25.0726 2.74402C25.127 2.31138 25.2939 1.89789 25.5526 1.55166C26.0486 0.888758 26.7958 0.526128 27.5942 0.548553C28.2438 0.566602 28.8566 0.862504 29.3158 1.33343C29.4454 1.46634 29.6555 1.46634 29.7851 1.33343L29.7905 1.32796C30.2433 0.863598 30.847 0.572072 31.4875 0.5491C32.1814 0.524487 32.8374 0.790306 33.3254 1.29077C33.7926 1.7699 34.0502 2.4071 34.0502 3.08477C34.0502 3.76245 33.7931 4.39965 33.3254 4.87878L29.7851 8.50891Z" fill="#FE5578"/>
<path d="M29.5504 9.15593C29.3189 9.15593 29.1018 9.0635 28.9386 8.89558L25.3984 5.26491C24.7333 4.58286 24.4218 3.63882 24.5429 2.67399C24.6101 2.14509 24.8128 1.64189 25.129 1.21855C25.728 0.417809 26.6197 -0.0301452 27.6085 0.00157812C28.3168 0.0212684 28.9989 0.306231 29.5504 0.808881C30.097 0.31006 30.7701 0.0272849 31.4693 0.00212504C32.3056 -0.0279574 33.1072 0.292557 33.7029 0.904051C34.2704 1.48546 34.5834 2.25995 34.5834 3.08421C34.5834 3.90846 34.2704 4.68295 33.7024 5.26491L30.1632 8.89449C29.9994 9.0624 29.7829 9.15539 29.552 9.15539C29.5509 9.15593 29.5504 9.15593 29.5504 9.15593ZM27.5253 1.09439C26.9146 1.09439 26.353 1.38045 25.9754 1.88474C25.7733 2.15493 25.6442 2.47654 25.601 2.81456C25.5226 3.44027 25.7232 4.05177 26.1525 4.49206L29.5498 7.9767L32.9477 4.49206C33.3146 4.11631 33.5162 3.61639 33.5162 3.08475C33.5162 2.55311 33.3141 2.0532 32.9477 1.67799C32.5632 1.28309 32.0485 1.08126 31.5056 1.09603C31.0154 1.11353 30.5397 1.33341 30.1674 1.71518C29.9994 1.88747 29.7824 1.98045 29.5514 1.98045C29.5509 1.98045 29.5504 1.98045 29.5504 1.98045C29.3189 1.98045 29.1018 1.88802 28.9386 1.7201C28.5589 1.33122 28.0768 1.10916 27.5797 1.09494C27.5616 1.09494 27.5434 1.09439 27.5253 1.09439ZM29.408 0.946713C29.4074 0.946713 29.4074 0.94726 29.4069 0.94726C29.4074 0.94726 29.4074 0.94726 29.408 0.946713Z" fill="black"/>
</svg>
